# xmcd CD database file
#
# Track frame offsets:
#	150
#	18302
#	43885
#	64789
#
# Disc length: 1313 seconds
#
# Revision: 0
# Processed by: cddbd v1.5.1PL0 Copyright (c) Steve Scherf et al.
# Submitted via: CDex 1.51
#
DISCID=2f051f04
DTITLE=Blacknuss featuring Titiyo - Seventh Heaven
DYEAR=1997
DGENRE=Jazz
TTITLE0=Seventh Heaven (Radio Edit)
TTITLE1=Seventh Heaven (Groove Mix)
TTITLE2=Seventh Heaven (Tribeca Club Mix - edit)
TTITLE3=Last Night A DJ Saved My Life (StoneBridge and Nick Nice Club Mix - edit)
EXTD=YEAR: 1997
EXTT0=
EXTT1=
EXTT2=
EXTT3=
PLAYORDER=
